<svg xmlns="http://www.w3.org/2000/svg" viewBox="0 0 512 512">
  <defs>
    <linearGradient id="grad1" x1="0%" y1="0%" x2="100%" y2="100%">
      <stop offset="0%" style="stop-color:#3b82f6;stop-opacity:1" />
      <stop offset="100%" style="stop-color:#1d4ed8;stop-opacity:1" />
    </linearGradient>
  </defs>
  <rect width="512" height="512" rx="100" fill="url(#grad1)" />
  <path d="M256 120c-75.1 0-136 60.9-136 136 0 23.9 6.2 46.4 17 66L102 410l88-35c19.6 10.8 42.1 17 66 17 75.1 0 136-60.9 136-136S331.1 120 256 120zm0 240c-19.6 0-38-5.1-54-14l-11-6-46 18 18-46-6-11c-8.9-16-14-34.4-14-54 0-57.4 46.6-104 104-104s104 46.6 104 104-46.6 104-104 104z" fill="#fff" />
  <path d="M256 200v60l40 20" stroke="#fff" stroke-width="20" stroke-linecap="round" fill="none" opacity="0.8" />
</svg>
